<?xml version="1.0" ?><svg height="22px" version="1.1" viewBox="0 0 23 22" width="23px" xmlns="http://www.w3.org/2000/svg" xmlns:sketch="http://www.bohemiancoding.com/sketch/ns" xmlns:xlink="http://www.w3.org/1999/xlink"><title/><defs><path d="M13.1280738,-1.86808672 L6,4.29864327 L6,19.5668775 C6,19.8368658 6.2236826,20.0557345 6.49907685,20.0557345 L20.5009232,20.0557345 C20.7765557,20.0557345 21,19.8329873 21,19.5668775 L21,4.29864327 L13.8719262,-1.86808672 C13.6665171,-2.0457929 13.3292604,-2.04213981 13.1280738,-1.86808672 Z M13.5,7.83351232 C14.6045696,7.83351232 15.5,6.95798032 15.5,5.87795676 C15.5,4.79793321 14.6045696,3.92240121 13.5,3.92240121 C12.3954305,3.92240121 11.5,4.79793321 11.5,5.87795676 C11.5,6.95798032 12.3954305,7.83351232 13.5,7.83351232 L13.5,7.83351232 Z" id="path-1"/></defs><g fill="none" fill-rule="evenodd" id="miu" stroke="none" stroke-width="1"><g id="common_tag_2_general_price_glyph"><use fill="#000000" fill-rule="evenodd" transform="translate(13.500000, 9.000000) rotate(45.000000) translate(-13.500000, -9.000000) " xlink:href="#path-1"/><use fill="none" xlink:href="#path-1"/></g></g></svg>